# xmcd
#
# Track frame offsets:
#	150
#	15870
#	30036
#	46005
#	65324
#	84802
#	104048
#	121653
#	135030
#	151834
#	168174
#	183473
#	198386
#	215349
#	229831
#
# Disc length: 3271 seconds
#
# Revision: 0
# Processed by: cddbd v1.5.1PL0 Copyright (c) Steve Scherf et al.
# Submitted via: audiograbber 1.82.02
#
DISCID=a10cc50f
DTITLE=Will Jordan - Soveel Jare Is Verby
DYEAR=2004
DGENRE=Country
TTITLE0=Soveel Jare Is Verby
TTITLE1=Cheryl Moana Marie
TTITLE2=Heimwee
TTITLE3=Ek Dink Ek Is Lief Vir Jou
TTITLE4=Staan 'n Bietjie Stil
TTITLE5=Senorita Bonita
TTITLE6=Wat Kan Ek Doen
TTITLE7=Hartseer, Verdriet en Alleen Wees
TTITLE8=I Did What I Did For Maria
TTITLE9=My Liefde Vir Jou
TTITLE10=Kom Nou Saam
TTITLE11=Die Son Skyn Weer Op Die Wes Kaap Se Strande
TTITLE12=Drive Safely Darlin
TTITLE13=Ek Was Nog Nooit In Knysna
TTITLE14=Vandag Is Jou Verjaardag
EXTD=
EXTT0=
EXTT1=
EXTT2=
EXTT3=
EXTT4=
EXTT5=
EXTT6=
EXTT7=
EXTT8=
EXTT9=
EXTT10=
EXTT11=
EXTT12=
EXTT13=
EXTT14=
PLAYORDER=
